<svg width="240" height="240" viewBox="0 0 240 240" fill="none" xmlns="http://www.w3.org/2000/svg">
<path fill-rule="evenodd" clip-rule="evenodd" d="M48.7348 61.7061C55.5892 48.3781 69.319 40 84.3063 40H155.694C170.681 40 184.411 48.3781 191.265 61.7061L215.572 108.968C218.482 114.627 220 120.899 220 127.262V160C220 182.091 202.091 200 180 200H60C37.9086 200 20 182.091 20 160V127.262C20 120.899 21.5182 114.627 24.4285 108.968L48.7348 61.7061ZM84.3063 60C76.8127 60 69.9477 64.189 66.5205 70.853L46.3878 110H58.8197C69.4594 110 79.186 116.011 83.9443 125.528C85.3147 128.269 88.116 130 91.1803 130H148.82C151.884 130 154.685 128.269 156.056 125.528C160.814 116.011 170.541 110 181.18 110H193.612L173.479 70.8531C170.052 64.189 163.187 60 155.694 60H84.3063ZM200 130H181.18C178.116 130 175.315 131.731 173.944 134.472C169.186 143.989 159.459 150 148.82 150H91.1803C80.5406 150 70.814 143.989 66.0557 134.472C64.6853 131.731 61.884 130 58.8197 130H40V160C40 171.046 48.9543 180 60 180H180C191.046 180 200 171.046 200 160V130Z" fill="#212121"></path>
</svg>